<svg width="21" height="19" viewBox="0 0 21 19" fill="none" xmlns="http://www.w3.org/2000/svg">
<path d="M19.2071 4.26098H1.75904C1.5232 4.26098 1.28736 4.25893 1.05152 4.26098H1.02076C1.26275 4.84546 1.50475 5.42788 1.74674 6.01235L3.10025 4.5727C3.82008 3.80776 4.5399 3.04487 5.25768 2.27993C5.42174 2.10561 5.58785 1.92924 5.75191 1.75493C5.50992 1.85542 5.26793 1.9559 5.02594 2.05434H13.955C14.3652 2.05434 14.7754 2.06049 15.1855 2.05434H15.204C14.962 1.95385 14.72 1.85337 14.478 1.75493L15.8315 3.19458C16.5513 3.95952 17.2712 4.72241 17.9889 5.48735C18.153 5.66167 18.3191 5.83803 18.4832 6.01235C18.6595 6.20102 18.9528 6.31176 19.2091 6.31176C19.4614 6.31176 19.7608 6.20102 19.9351 6.01235C20.1135 5.81753 20.2468 5.56118 20.2345 5.28637C20.2222 5.00952 20.1258 4.76547 19.9351 4.5604C19.527 4.12768 19.121 3.69497 18.7129 3.26225C18.0176 2.52397 17.3245 1.78569 16.6293 1.04946C16.4221 0.827974 16.2129 0.608541 16.0058 0.387056C15.7946 0.16147 15.5321 0.00971273 15.2019 0.00356039H5.33766C5.15309 0.00356039 4.92955 -0.0169474 4.75318 0.0404744C4.40045 0.155318 4.20563 0.405513 3.96568 0.65981C3.31969 1.34477 2.67574 2.02973 2.02975 2.71674C1.48014 3.30122 0.930527 3.88364 0.380918 4.46811C0.352207 4.49887 0.321445 4.53169 0.292734 4.56245C0.00767562 4.86596 -0.0825588 5.29663 0.0815037 5.68217C0.239414 6.05337 0.606504 6.31176 1.01871 6.31176H18.4668C18.7026 6.31176 18.9384 6.31381 19.1743 6.31176H19.205C19.4675 6.31176 19.7444 6.19692 19.931 6.01235C20.1094 5.83393 20.2427 5.54272 20.2304 5.28637C20.2181 5.02182 20.132 4.74702 19.931 4.5604C19.7321 4.37788 19.486 4.26098 19.2071 4.26098Z" fill="white"/>
<path d="M18.1891 5.0263V16.1313C18.1891 16.6419 18.1829 17.1546 18.1891 17.6653V17.6858L19.2145 16.6604H1.76641C1.53057 16.6604 1.29473 16.6583 1.05889 16.6604H1.02812L2.05352 17.6858V6.58079C2.05352 6.07015 2.05967 5.55745 2.05352 5.04681V5.0263L1.02812 6.05169H18.4762C18.712 6.05169 18.9479 6.05374 19.1837 6.05169H19.2145C19.477 6.05169 19.7538 5.93685 19.9404 5.75228C20.1188 5.57386 20.2521 5.28265 20.2398 5.0263C20.2275 4.76175 20.1414 4.48695 19.9404 4.30033C19.7395 4.11576 19.4934 4.00091 19.2145 4.00091H1.76641C1.53057 4.00091 1.29473 3.99886 1.05889 4.00091H1.02812C0.474414 4.00091 0.00273438 4.47054 0.00273438 5.0263V16.1313C0.00273438 16.6419 -0.00341797 17.1546 0.00273438 17.6653V17.6858C0.00273438 18.2395 0.472363 18.7112 1.02812 18.7112H18.4762C18.712 18.7112 18.9479 18.7132 19.1837 18.7112H19.2145C19.7682 18.7112 20.2398 18.2415 20.2398 17.6858V6.58079C20.2398 6.07015 20.246 5.55745 20.2398 5.04681V5.0263C20.2398 4.7638 20.125 4.48695 19.9404 4.30033C19.762 4.12191 19.4708 3.98861 19.2145 4.00091C18.9499 4.01322 18.6751 4.09935 18.4885 4.30033C18.306 4.50335 18.1891 4.74945 18.1891 5.0263Z" fill="white"/>
<path d="M11.5896 4.02823V9.65147C12.1044 9.35616 12.6191 9.06085 13.1318 8.76553C12.4551 8.41075 11.7783 8.05596 11.0995 7.70118C11.0134 7.65606 10.9272 7.60889 10.8391 7.56378C10.6791 7.4838 10.5048 7.41407 10.3202 7.42227C10.1315 7.43048 9.97158 7.47559 9.80137 7.56173C9.79316 7.56583 9.78496 7.56993 9.77676 7.57608C9.73164 7.60069 9.68447 7.62325 9.63936 7.64786C9.2456 7.85499 8.85186 8.06006 8.45811 8.26719C8.14229 8.43331 7.82646 8.59942 7.50859 8.76348C8.02334 9.0588 8.53809 9.35411 9.05078 9.64942V4.02618L8.02539 5.05157H12.613C12.8755 5.05157 13.1523 4.93673 13.339 4.75215C13.5174 4.57374 13.6507 4.28253 13.6384 4.02618C13.6261 3.76163 13.5399 3.48682 13.339 3.3002C13.138 3.11563 12.8919 3.00079 12.613 3.00079H8.02539C7.47168 3.00079 7 3.47042 7 4.02618V9.64942C7 10.0104 7.19687 10.3528 7.50859 10.5354C7.83672 10.7281 8.21406 10.7076 8.54424 10.5354C9.21279 10.1847 9.8834 9.83399 10.552 9.48331C10.6483 9.43409 10.7427 9.38282 10.8391 9.3336H9.80342C10.472 9.68428 11.1426 10.035 11.8111 10.3857C11.9075 10.4349 12.0019 10.4861 12.0982 10.5354C12.4264 10.7076 12.8058 10.7281 13.1339 10.5354C13.4456 10.3528 13.6425 10.0124 13.6425 9.64942V4.02618C13.6425 3.76368 13.5276 3.48682 13.3431 3.3002C13.1646 3.12178 12.8734 2.98848 12.6171 3.00079C12.3525 3.01309 12.0777 3.09923 11.8911 3.3002C11.7065 3.50528 11.5896 3.75137 11.5896 4.02823Z" fill="white"/>
</svg>
